:SAMPLES-PER-SECOND 30
:FULLY-SPECIFIED
:DEGREES
658
root  -47.4715 39.7995 3.70663 -156.175 -81.8753 149.092
RightUpLeg  -16.4573 4.41172 -7.1277
RightLeg  27.0186 0.939733 0.337717
RightFoot  -3.4037 -0.627978 8.69626
RightToes  -1.74624e-010 0 -3.6325e-017
Spine  5.90211 -1.53964 -7.60936
Spine1  6.23274 -2.24351 0.149221
HEad  -11.6672 6.32666 -2.43906
LeftShoulder1  -0.45177 4.68845 -31.9977
LeftArm  1.24662 -11.3368 -41.8465
LeftForeArm  23.2362 -31.6904 -5.64664
LeftHand  -0.0294379 5.25799 3.52471
RightShoulder  -0.919532 -6.01892 29.9771
RightArm  13.1181 -13.2576 41.958
RightForeArm  22.4164 8.79029 6.14567
RightHand  0.0400087 1.87327 0.500892
LeftUpLeg  1.57115 5.91593 -6.71629
LeftLeg  14.0902 5.22367 -0.469683
LeftFoot  -8.73774 -0.136438 8.28373
LeftToes  2.27646e-009 -8.13696e-011 -1.44715e-011
659
root  -48.2851 39.8116 3.7218 -154.036 -81.8644 147.337
RightUpLeg  -16.2073 3.06813 -6.74598
RightLeg  17.1336 2.19997 0.286327
RightFoot  -3.46552 -0.588067 8.19678
RightToes  -1.74624e-010 0 -3.6325e-017
Spine  5.44101 -1.59873 -7.58571
Spine1  6.1131 -2.23306 0.462513
HEad  -11.292 6.05932 -2.36696
LeftShoulder1  -0.450227 4.68875 -31.8564
LeftArm  2.20526 -12.1467 -41.8814
LeftForeArm  23.6161 -32.8987 -5.92378
LeftHand  -0.0408814 4.85221 3.96398
RightShoulder  -0.897351 -5.94652 30.1382
RightArm  12.3799 -12.6955 42.2289
RightForeArm  22.3835 8.45194 5.94933
RightHand  0.0908166 1.77313 1.36417
LeftUpLeg  3.02266 5.81686 -7.08654
LeftLeg  13.0531 5.24324 -0.565951
LeftFoot  -9.56056 -0.0702884 8.22352
LeftToes  2.27646e-009 -8.13696e-011 -1.44715e-011
660
root  -49.0912 39.8479 3.75653 -150.216 -82.0949 144.096
RightUpLeg  -15.8288 -1.68191 -5.40763
RightLeg  7.59354 5.91907 -0.520875
RightFoot  -2.91564 -0.602667 7.89273
RightToes  -1.74624e-010 0 -3.6325e-017
Spine  4.93308 -1.53331 -7.50476
Spine1  6.09001 -2.22124 1.33054
HEad  -10.9727 4.86855 -2.81115
LeftShoulder1  -0.433584 4.6438 -31.8919
LeftArm  3.86619 -12.7358 -42.1673
LeftForeArm  23.61 -33.368 -6.04259
LeftHand  -0.0311152 5.15126 3.41424
RightShoulder  -0.974736 -6.14965 30.275
RightArm  12.5068 -12.3213 42.2555
RightForeArm  20.7082 9.21447 5.94463
RightHand  0.0364129 3.19996 0.242648
LeftUpLeg  4.5185 5.53082 -7.54166
LeftLeg  11.4088 5.08917 -0.788671
LeftFoot  -10.0144 -0.0368447 8.38523
LeftToes  2.27646e-009 -8.13696e-011 -1.44715e-011
661
root  -49.9272 39.8212 3.7616 -146.036 -82.3404 140.662
RightUpLeg  -15.7084 -5.56937 -4.31264
RightLeg  -0.269114 7.41672 -1.16537
RightFoot  -2.89542 -0.685016 8.98784
RightToes  -1.74624e-010 0 -3.6325e-017
Spine  3.87561 -1.64019 -6.7132
Spine1  6.57753 -2.15447 1.06899
HEad  -11.0583 4.22517 -2.79053
LeftShoulder1  -0.409559 4.57863 -31.9606
LeftArm  5.91522 -13.0267 -42.537
LeftForeArm  23.2192 -32.895 -5.94631
LeftHand  -0.0440297 4.51066 2.83158
RightShoulder  -0.950696 -6.09678 30.0663
RightArm  12.2582 -11.9319 43.1425
RightForeArm  21.038 10.396 5.67395
RightHand  0.0860011 3.10819 0.942688
LeftUpLeg  5.53916 5.17783 -8.06542
LeftLeg  10.4885 5.0405 -0.683183
LeftFoot  -10.8265 0.0274738 8.24276
LeftToes  2.27646e-009 -8.13696e-011 -1.44715e-011
662
root  -50.8178 39.7288 3.75964 -143.588 -82.3475 138.305
RightUpLeg  -15.7636 -6.06977 -4.38542
RightLeg  -3.22029 2.18667 -0.315838
RightFoot  -2.84356 -0.61793 8.05516
RightToes  -1.74624e-010 0 -3.6325e-017
Spine  3.54366 -1.52514 -5.92658
Spine1  7.03494 -1.99039 0.969144
HEad  -12.0296 3.73849 -2.81587
LeftShoulder1  -0.414241 4.57503 -32.4902
LeftArm  8.35127 -12.9597 -42.8171
LeftForeArm  22.1114 -31.6787 -5.70874
LeftHand  -0.0572233 4.01032 3.02295
RightShoulder  -0.839946 -5.83937 29.3545
RightArm  13.1515 -11.2737 44.0951
RightForeArm  20.0503 11.7578 5.64977
RightHand  0.0636508 3.02913 0.648817
LeftUpLeg  7.16081 5.03455 -8.49122
LeftLeg  10.0519 5.16767 -0.547691
LeftFoot  -12.1921 0.133043 7.89419
LeftToes  2.27646e-009 -8.13696e-011 -1.44715e-011
663
root  -51.768 39.5565 3.71327 -142.619 -82.3109 137.217
RightUpLeg  -16.3261 -6.45272 -4.30956
RightLeg  -1.1672 -5.88135 0.686019
RightFoot  -2.13946 -0.543679 6.55531
RightToes  -1.74624e-010 0 -3.6325e-017
Spine  3.73893 -1.43056 -4.53345
Spine1  6.89543 -1.59156 -0.317467
HEad  -12.1447 3.12376 -2.50291
LeftShoulder1  -0.300989 4.30028 -31.6996
LeftArm  11.5698 -12.218 -43.4723
LeftForeArm  21.1304 -29.7667 -5.30571
LeftHand  -0.029631 5.06552 1.70904
RightShoulder  -0.913556 -6.00295 29.9737
RightArm  15.1933 -9.96429 44.0273
RightForeArm  18.7711 13.1871 5.72251
RightHand  0.0870696 3.46865 0.895342
LeftUpLeg  8.60424 5.35327 -8.50846
LeftLeg  10.743 4.89311 -0.591387
LeftFoot  -14.092 0.27793 8.03536
LeftToes  2.27646e-009 -8.13696e-011 -1.44715e-011
664
root  -52.7888 39.3411 3.65667 -140.842 -82.0554 135.45
RightUpLeg  -16.9816 -7.91719 -4.37032
RightLeg  2.74674 -12.3444 1.34954
RightFoot  -1.51922 -0.436255 4.86318
RightToes  -1.74624e-010 0 -3.6325e-017
Spine  3.09904 -1.24281 -4.00597
Spine1  7.64466 -1.40509 -0.245531
HEad  -12.6067 2.4417 -2.39505
LeftShoulder1  -0.266076 4.1965 -32.2663
LeftArm  15.9442 -11.511 -43.5968
LeftForeArm  18.7833 -27.1108 -4.77301
LeftHand  -0.0287083 5.19125 1.69787
RightShoulder  -0.891024 -5.97349 29.4795
RightArm  16.3631 -8.68139 44.7068
RightForeArm  17.4559 14.5056 5.53561
RightHand  0.0804267 3.54371 0.791339
LeftUpLeg  10.047 5.32051 -8.98087
LeftLeg  11.332 5.01256 -0.303936
LeftFoot  -15.9965 0.410033 7.7277
LeftToes  2.27646e-009 -8.13696e-011 -1.44715e-011
665
root  -53.8499 39.2254 3.60506 -139.158 -82.8483 133.699
RightUpLeg  -16.8342 -9.94046 -3.97477
RightLeg  6.05464 -15.2105 1.4156
RightFoot  0.684935 -0.0362532 0.785055
RightToes  -1.74624e-010 0 -3.6325e-017
Spine  3.1796 -1.53603 -2.8977
Spine1  7.21746 -1.86503 0.310755
HEad  -12.3531 1.73862 -2.24222
LeftShoulder1  -0.282685 4.23348 -32.6214
LeftArm  20.404 -9.82794 -43.7624
LeftForeArm  16.5263 -23.6557 -4.5062
LeftHand  -0.0243018 5.71582 1.82739
RightShoulder  -0.834571 -5.83972 29.1128
RightArm  17.0919 -7.82291 44.9006
RightForeArm  16.8318 15.5941 5.28586
RightHand  0.0638234 2.97189 0.664419
LeftUpLeg  12.0885 5.29994 -8.63653
LeftLeg  11.0621 4.39262 0.0654264
LeftFoot  -17.3424 0.47544 7.05046
LeftToes  2.27646e-009 -8.13696e-011 -1.44715e-011
666
root  -54.9865 39.1928 3.56781 -143.942 -83.8159 139.021
RightUpLeg  -17.834 -11.2502 -2.8781
RightLeg  9.17735 -14.7923 1.00291
RightFoot  5.89472 0.754438 -4.85933
RightToes  -1.74624e-010 0 -3.6325e-017
Spine  1.85264 -1.62373 0.239392
Spine1  7.75424 -1.78991 -0.210689
HEad  -11.7857 0.0151693 -1.91898
LeftShoulder1  -0.269982 4.19419 -32.9257
LeftArm  22.3878 -9.00292 -43.6067
LeftForeArm  18.12 -18.7928 -6.49078
LeftHand  -0.035474 6.02487 -0.129559
RightShoulder  -0.949808 -6.11007 29.8698
RightArm  17.312 -6.98069 44.0594
RightForeArm  15.2928 16.8476 4.91287
RightHand  0.0346075 3.40156 0.212639
LeftUpLeg  13.7464 4.85626 -7.85728
LeftLeg  10.4497 4.47357 0.743145
LeftFoot  -18.0145 0.481495 6.40717
LeftToes  2.27646e-009 -8.13696e-011 -1.44715e-011
667
root  -56.1762 39.0991 3.50791 -162.533 -84.1635 157.417
RightUpLeg  -18.7905 -14.1476 0.306846
RightLeg  14.4145 -9.66762 -0.693006
RightFoot  5.6649 1.06515 -6.8517
RightToes  -1.74624e-010 0 -3.6325e-017
Spine  1.93228 -1.50988 4.24637
Spine1  7.11448 -1.43434 -1.17129
HEad  -11.0688 -2.22112 -1.50087
LeftShoulder1  -0.381517 4.45298 -34.043
LeftArm  14.6626 -7.33561 -42.6888
LeftForeArm  29.5703 -12.6808 -10.3061
LeftHand  -0.062581 6.86341 -1.88939
RightShoulder  -1.00557 -6.2375 30.2277
RightArm  17.5076 -5.77573 43.3335
RightForeArm  13.3094 17.2245 4.89496
RightHand  -0.0138088 3.52566 -0.431987
LeftUpLeg  14.7835 6.06858 -5.37619
LeftLeg  13.2048 3.53943 1.09896
LeftFoot  -19.3681 0.445473 4.72779
LeftToes  2.27646e-009 -8.13696e-011 -1.44715e-011
668
root  -57.3212 39.0325 3.4348 -179.271 -82.0652 174.634
RightUpLeg  -19.7021 -14.4322 3.04637
RightLeg  18.0596 -6.41882 -2.13152
RightFoot  3.81435 0.911331 -6.65086
RightToes  -1.74624e-010 0 -3.6325e-017
Spine  1.31632 -0.851604 8.18138
Spine1  6.80083 -0.360713 -2.66618
HEad  -11.0379 -4.14358 -0.964298
LeftShoulder1  -0.440235 4.57638 -34.889
LeftArm  5.18157 -4.60118 -41.7549
LeftForeArm  41.5738 -6.57174 -11.9752
LeftHand  -0.0882208 7.34107 -2.7047
RightShoulder  -0.922578 -6.04389 29.7377
RightArm  15.9266 -4.16445 43.8891
RightForeArm  13.8831 16.1526 5.02942
RightHand  -0.00911131 3.90897 -0.378505
LeftUpLeg  13.9909 7.91203 -3.47078
LeftLeg  17.9399 2.79923 1.26679
LeftFoot  -19.6679 0.194935 1.02885
LeftToes  2.27646e-009 -8.13696e-011 -1.44715e-011
669
root  -58.3075 39.0347 3.27515 175.213 -80.8738 -179.701
RightUpLeg  -19.2277 -12.9826 3.78421
RightLeg  20.2422 -6.55708 -2.51878
RightFoot  2.11381 0.852781 -7.08746
RightToes  -1.74624e-010 0 -3.6325e-017
Spine  1.30903 -1.01147 9.17963
Spine1  6.55986 -0.558087 -1.5742
HEad  -10.5227 -4.82981 -0.642128
LeftShoulder1  -0.445604 4.58094 -35.191
LeftArm  1.15988 -0.958843 -40.7116
LeftForeArm  46.9439 -2.86577 -11.8271
LeftHand  -0.159229 8.47579 -3.88768
RightShoulder  -0.828692 -5.82678 29.0595
RightArm  14.0291 -2.33056 44.9814
RightForeArm  15.1408 15.031 5.07999
RightHand  0.00186856 3.88321 -0.243471
LeftUpLeg  11.8047 9.02193 -1.60341
LeftLeg  25.2826 0.397405 0.514256
LeftFoot  -17.8206 -0.123532 -4.28934
LeftToes  2.27646e-009 -8.13696e-011 -1.44715e-011
